<svg width="350" height="28" viewBox="0 0 350 28" fill="none" xmlns="http://www.w3.org/2000/svg">
<g clip-path="url(#clip0_0_329)">
<path fill-rule="evenodd" clip-rule="evenodd" d="M10.6996 1.16736L13.5037 7.48972L20.5138 8.38229C20.809 8.45667 20.8827 8.7542 20.6614 8.97734L15.6436 13.6633L16.9718 20.5807C16.9718 20.8783 16.6767 21.1014 16.4553 20.9526L10.4783 17.5311L4.35365 20.9526C4.05848 21.1014 3.83711 20.8783 3.83711 20.5807L5.23913 13.8121L0.0737906 8.97734C-0.0737906 8.7542 -2.98023e-08 8.45667 0.295163 8.38229L7.0839 7.63849L10.1093 1.16736C10.2569 0.944214 10.5521 0.944214 10.6996 1.16736Z" fill="#FFF4CB"/>
</g>
<g clip-path="url(#clip1_0_329)">
<path fill-rule="evenodd" clip-rule="evenodd" d="M34.6996 1.16736L37.5037 7.48972L44.5138 8.38229C44.809 8.45667 44.8827 8.7542 44.6614 8.97734L39.6436 13.6633L40.9718 20.5807C40.9718 20.8783 40.6767 21.1014 40.4553 20.9526L34.4783 17.5311L28.3537 20.9526C28.0585 21.1014 27.8371 20.8783 27.8371 20.5807L29.2391 13.8121L24.0738 8.97734C23.9262 8.7542 24 8.45667 24.2952 8.38229L31.0839 7.63849L34.1093 1.16736C34.2569 0.944214 34.5521 0.944214 34.6996 1.16736Z" fill="#FFF4CB"/>
</g>
<g clip-path="url(#clip2_0_329)">
<path fill-rule="evenodd" clip-rule="evenodd" d="M58.6996 1.16736L61.5037 7.48972L68.5138 8.38229C68.809 8.45667 68.8827 8.7542 68.6614 8.97734L63.6436 13.6633L64.9718 20.5807C64.9718 20.8783 64.6767 21.1014 64.4553 20.9526L58.4783 17.5311L52.3537 20.9526C52.0585 21.1014 51.8371 20.8783 51.8371 20.5807L53.2391 13.8121L48.0738 8.97734C47.9262 8.7542 48 8.45667 48.2952 8.38229L55.0839 7.63849L58.1093 1.16736C58.2569 0.944214 58.5521 0.944214 58.6996 1.16736Z" fill="#FFF4CB"/>
</g>
<g clip-path="url(#clip3_0_329)">
<path fill-rule="evenodd" clip-rule="evenodd" d="M82.6996 1.16736L85.5037 7.48972L92.5138 8.38229C92.809 8.45667 92.8827 8.7542 92.6614 8.97734L87.6436 13.6633L88.9718 20.5807C88.9718 20.8783 88.6767 21.1014 88.4553 20.9526L82.4783 17.5311L76.3537 20.9526C76.0585 21.1014 75.8371 20.8783 75.8371 20.5807L77.2391 13.8121L72.0738 8.97734C71.9262 8.7542 72 8.45667 72.2952 8.38229L79.0839 7.63849L82.1093 1.16736C82.2569 0.944214 82.5521 0.944214 82.6996 1.16736Z" fill="#FFF4CB"/>
</g>
<g clip-path="url(#clip4_0_329)">
<path fill-rule="evenodd" clip-rule="evenodd" d="M106.7 1.16736L109.504 7.48972L116.514 8.38229C116.809 8.45667 116.883 8.7542 116.661 8.97734L111.644 13.6633L112.972 20.5807C112.972 20.8783 112.677 21.1014 112.455 20.9526L106.478 17.5311L100.354 20.9526C100.058 21.1014 99.8371 20.8783 99.8371 20.5807L101.239 13.8121L96.0738 8.97734C95.9262 8.7542 96 8.45667 96.2952 8.38229L103.084 7.63849L106.109 1.16736C106.257 0.944214 106.552 0.944214 106.7 1.16736Z" fill="#FFF4CB"/>
</g>
<defs>
<clipPath id="clip0_0_329">
<rect width="21" height="20" fill="white" transform="translate(0 1)"/>
</clipPath>
<clipPath id="clip1_0_329">
<rect width="21" height="20" fill="white" transform="translate(24 1)"/>
</clipPath>
<clipPath id="clip2_0_329">
<rect width="21" height="20" fill="white" transform="translate(48 1)"/>
</clipPath>
<clipPath id="clip3_0_329">
<rect width="21" height="20" fill="white" transform="translate(72 1)"/>
</clipPath>
<clipPath id="clip4_0_329">
<rect width="21" height="20" fill="white" transform="translate(96 1)"/>
</clipPath>
</defs>
</svg>
